<svg id="ban" xmlns="http://www.w3.org/2000/svg" width="80.555" height="80.555" viewBox="0 0 80.555 80.555">
  <path id="Path_2554" data-name="Path 2554" d="M71.76,15.5a27.787,27.787,0,0,0-3.115-3.587,27.824,27.824,0,0,0-3.587-3.115A39.54,39.54,0,0,0,11.91,11.91,39.6,39.6,0,0,0,8.8,65.1,37,37,0,0,0,15.45,71.76a39.6,39.6,0,0,0,53.195-3.115A39.54,39.54,0,0,0,71.76,15.5ZM9.6,40.277A30.672,30.672,0,0,1,58.355,15.5L15.545,58.355A30.08,30.08,0,0,1,9.6,40.277ZM61.989,61.989a30.642,30.642,0,0,1-21.712,8.968A30.081,30.081,0,0,1,22.2,65.01L65.058,22.2a30.713,30.713,0,0,1-3.068,39.79Z" fill="#fd003a"/>
  <path id="Path_2555" data-name="Path 2555" d="M79.24,135.55a40.039,40.039,0,0,0,56.31-56.262,27.789,27.789,0,0,0-3.115-3.587L75.7,132.435A36.317,36.317,0,0,0,79.24,135.55Zm49.607-49.56A30.644,30.644,0,0,1,85.989,128.8Z" transform="translate(-63.79 -63.79)" fill="#e50027"/>
</svg>
