<svg xmlns="http://www.w3.org/2000/svg" width="74" height="98" viewBox="0 0 74 98">
  <g id="file_7_" data-name="file (7)" transform="translate(-42.32 -8.998)">
    <path id="Subtraction_33" data-name="Subtraction 33" d="M68.989,98H5.009a4.813,4.813,0,0,1-1.95-.41,4.993,4.993,0,0,1-1.592-1.118A5.227,5.227,0,0,1,.393,94.812,5.372,5.372,0,0,1,0,92.78V5.221A5.374,5.374,0,0,1,.393,3.189,5.209,5.209,0,0,1,1.467,1.53,5.006,5.006,0,0,1,3.059.41,4.813,4.813,0,0,1,5.009,0H51.9V19.078a3.872,3.872,0,0,0,3.786,3.945H74l-1.156-1.205H56.759a3.46,3.46,0,0,1-2.521-1.095,3.807,3.807,0,0,1-1.044-2.643V0L74,21.817H72.844L74,23.022V92.78a5.367,5.367,0,0,1-.394,2.032,5.217,5.217,0,0,1-1.074,1.659,4.987,4.987,0,0,1-1.593,1.118A4.814,4.814,0,0,1,68.989,98ZM17.161,77.759a5.024,5.024,0,1,0,5.046,5.025A5.041,5.041,0,0,0,17.161,77.759Zm12.487,3v2.919H61.884V80.755ZM17.161,61.011a5.024,5.024,0,1,0,5.046,5.025A5.041,5.041,0,0,0,17.161,61.011Zm12.487,2.235v2.919H61.884V63.246ZM17.161,44.263a5.025,5.025,0,1,0,5.046,5.025A5.041,5.041,0,0,0,17.161,44.263Zm12.487,4.392v2.918H61.884V48.654ZM17.161,27.515a5.024,5.024,0,1,0,5.046,5.024A5.041,5.041,0,0,0,17.161,27.515Zm12.487,3.63v2.918H61.884V31.145ZM17.161,84.458a1.675,1.675,0,1,1,1.682-1.675A1.68,1.68,0,0,1,17.161,84.458Zm0-16.748a1.675,1.675,0,1,1,1.682-1.675A1.68,1.68,0,0,1,17.161,67.71Zm0-16.748a1.675,1.675,0,1,1,1.682-1.675A1.68,1.68,0,0,1,17.161,50.962Zm0-16.748a1.675,1.675,0,1,1,1.682-1.676A1.68,1.68,0,0,1,17.161,34.214Z" transform="translate(42.32 8.998)" fill="#d2d1d1"/>
  </g>
</svg>
