<svg xmlns="http://www.w3.org/2000/svg" width="17.811" height="17.811" viewBox="0 0 17.811 17.811">
  <g id="pencil" transform="translate(-0.001)">
    <g id="Group_2915" data-name="Group 2915" transform="translate(0.001)">
      <path id="Path_985" data-name="Path 985" d="M8.906,0a8.905,8.905,0,1,0,8.906,8.905A8.905,8.905,0,0,0,8.906,0Zm4.233,6.409-.846.846L10.572,5.533l-.653.653L11.64,7.908,7.417,12.13,5.7,10.409l-.653.653,1.722,1.722-.421.421L6.335,13.2a.333.333,0,0,1-.213.153l-1.606.358a.334.334,0,0,1-.4-.4L4.477,11.7a.334.334,0,0,1,.153-.213l-.008-.008,6.8-6.8a.256.256,0,0,1,.361,0L13.14,6.047A.255.255,0,0,1,13.139,6.409Z" transform="translate(-0.001)" fill="#1c4870"/>
    </g>
  </g>
</svg>
